<?xml version="1.0" encoding="UTF-8"?>
<svg id="Layer_2" data-name="Layer 2" xmlns="http://www.w3.org/2000/svg" viewBox="0 0 251.77 251.81">
  <defs>
    <style>
      .cls-1 {
        fill: #fff;
        stroke-width: 0px;
      }
    </style>
  </defs>
  <g id="Grid">
    <g>
      <path class="cls-1" d="M38.59,99.05c3.95.23,7.87,1.32,11.43,3.29h0c11.93,6.32,17.09,21.89,11.81,33.83-6.89,17.58-31.51,22.24-44.25,8.15-4.03-3.99-12.96-13-17.06-17.07-.86-.84-.61-2.36.49-2.87,2.99-1.76,6.28-.82,9.22.46,10.41,3.53,22.33,1.3,30.83-6.68.82-.66.89-1.91.14-2.65,0,0-5.81-5.82-5.81-5.82-.68-.74-1.86-.76-2.56-.04-4.76,4.39-11.23,5.87-17.14,4.44-1.18-.13-1.89-1.58-1.31-2.59,5.06-8.17,14.73-13.1,24.23-12.45Z"/>
      <path class="cls-1" d="M152.71,38.59c-.23,3.95-1.32,7.87-3.29,11.43h0c-6.32,11.93-21.89,17.09-33.83,11.81-17.58-6.89-22.24-31.51-8.15-44.25,3.99-4.03,13-12.96,17.07-17.06.84-.86,2.36-.61,2.87.49,1.76,2.99.82,6.28-.46,9.22-3.53,10.41-1.3,22.33,6.68,30.83.66.82,1.91.89,2.65.14,0,0,5.82-5.81,5.82-5.81.74-.68.76-1.86.04-2.56-4.39-4.76-5.87-11.23-4.44-17.14.13-1.18,1.58-1.89,2.59-1.31,8.17,5.06,13.1,14.73,12.45,24.23Z"/>
      <path class="cls-1" d="M213.18,152.71c-3.95-.23-7.87-1.32-11.43-3.29h0c-11.93-6.32-17.09-21.89-11.81-33.83,6.89-17.58,31.51-22.24,44.25-8.15,4.03,3.99,12.96,13,17.06,17.07.86.84.61,2.36-.49,2.87-2.99,1.76-6.28.82-9.22-.46-10.41-3.53-22.33-1.3-30.83,6.68-.82.66-.89,1.91-.14,2.65,0,0,5.81,5.82,5.81,5.82.68.74,1.86.76,2.56.04,4.76-4.39,11.23-5.87,17.14-4.44,1.18.13,1.89,1.58,1.31,2.59-5.06,8.17-14.73,13.1-24.23,12.45Z"/>
      <path class="cls-1" d="M43.45,180.51c2.17-1.93,4.77-3.39,7.64-4.22h0c9.47-2.91,20.22,2.49,23.68,11.43,5.55,12.7-4.81,27.88-18.73,27.19-4.16.02-13.47-.02-17.7,0-.88.01-1.54-.91-1.24-1.74.64-2.46,2.83-3.69,5.02-4.54,7.23-3.57,12.26-10.91,12.53-19.46.08-.77-.53-1.45-1.3-1.45,0,0-6.03,0-6.03,0-.74-.03-1.36.57-1.35,1.31-.19,4.74-2.78,8.87-6.59,11.19-.68.55-1.8.16-2.02-.67-1.61-6.86.85-14.44,6.11-19.03Z"/>
      <path class="cls-1" d="M71.26,43.45c1.93,2.17,3.39,4.77,4.22,7.64h0c2.92,9.47-2.49,20.23-11.43,23.68-12.7,5.55-27.88-4.81-27.19-18.73-.02-4.16.02-13.47,0-17.7-.01-.88.91-1.54,1.74-1.24,2.46.64,3.69,2.83,4.54,5.02,3.57,7.23,10.91,12.26,19.46,12.53.77.08,1.45-.53,1.45-1.3,0,0,0-6.03,0-6.03.03-.74-.57-1.36-1.31-1.35-4.74-.19-8.87-2.78-11.19-6.59-.55-.68-.16-1.8.67-2.02,6.86-1.61,14.44.85,19.03,6.11Z"/>
      <path class="cls-1" d="M208.32,71.26c-2.17,1.93-4.77,3.39-7.64,4.22h0c-9.47,2.91-20.22-2.49-23.68-11.43-5.55-12.7,4.81-27.88,18.73-27.19,4.16-.02,13.47.02,17.7,0,.88-.01,1.54.91,1.24,1.74-.64,2.46-2.83,3.69-5.02,4.54-7.23,3.57-12.26,10.91-12.53,19.46-.08.77.53,1.45,1.3,1.45,0,0,6.03,0,6.03,0,.74.03,1.36-.57,1.35-1.31.19-4.74,2.78-8.87,6.59-11.19.68-.55,1.8-.16,2.02.67,1.61,6.86-.85,14.44-6.11,19.03Z"/>
      <path class="cls-1" d="M180.51,208.32c-1.93-2.17-3.39-4.77-4.22-7.64h0c-2.92-9.47,2.49-20.23,11.43-23.68,12.7-5.55,27.88,4.81,27.19,18.73.02,4.16-.02,13.47,0,17.7.01.88-.91,1.54-1.74,1.24-2.46-.64-3.69-2.83-4.54-5.02-3.57-7.23-10.91-12.26-19.46-12.53-.77-.08-1.45.53-1.45,1.3,0,0,0,6.03,0,6.03-.03.74.57,1.36,1.31,1.35,4.74.19,8.87,2.78,11.19,6.59.55.68.16,1.8-.67,2.02-6.86,1.61-14.44-.85-19.03-6.11Z"/>
      <path class="cls-1" d="M109.21,170.51c-2.18,1.94-4.79,3.41-7.67,4.24h0c-9.51,2.93-20.31-2.5-23.78-11.48-5.57-12.75,4.83-28.01,18.81-27.31,4.18-.02,13.53.02,17.78,0,.89-.01,1.55.92,1.24,1.75-.64,2.47-2.84,3.7-5.04,4.56-7.26,3.58-12.32,10.96-12.58,19.54-.08.77.53,1.46,1.31,1.45,0,0,6.06,0,6.06,0,.74.03,1.36-.57,1.36-1.31.19-4.76,2.79-8.91,6.62-11.24.69-.55,1.81-.16,2.03.67,1.62,6.89-.85,14.5-6.14,19.12Z"/>
      <path class="cls-1" d="M81.25,109.21c-1.94-2.18-3.41-4.79-4.24-7.67h0c-2.93-9.51,2.5-20.31,11.48-23.78,12.75-5.57,28.01,4.83,27.31,18.81.02,4.18-.02,13.53,0,17.78.01.89-.92,1.55-1.75,1.24-2.47-.64-3.7-2.84-4.56-5.04-3.58-7.26-10.96-12.32-19.54-12.58-.77-.08-1.46.53-1.45,1.31,0,0,0,6.06,0,6.06-.03.74.57,1.36,1.31,1.36,4.76.19,8.91,2.79,11.24,6.62.55.69.16,1.81-.67,2.03-6.89,1.62-14.5-.85-19.12-6.14Z"/>
      <path class="cls-1" d="M142.56,81.25c2.18-1.94,4.79-3.41,7.67-4.24h0c9.51-2.93,20.31,2.5,23.78,11.48,5.57,12.75-4.83,28.01-18.81,27.31-4.18.02-13.53-.02-17.78,0-.89.01-1.55-.92-1.24-1.75.64-2.47,2.84-3.7,5.04-4.56,7.26-3.58,12.32-10.96,12.58-19.54.08-.77-.53-1.46-1.31-1.45h-6.06c-.74-.03-1.36.57-1.36,1.31-.19,4.76-2.79,8.91-6.62,11.24-.69.55-1.81.16-2.03-.67-1.62-6.89.85-14.5,6.14-19.12Z"/>
      <path class="cls-1" d="M170.51,142.56c1.94,2.18,3.41,4.79,4.24,7.67h0c2.93,9.51-2.5,20.31-11.48,23.78-12.75,5.57-28.01-4.83-27.31-18.81-.02-4.18.02-13.53,0-17.78-.01-.89.92-1.55,1.75-1.24,2.47.64,3.7,2.84,4.56,5.04,3.58,7.26,10.96,12.32,19.54,12.58.77.08,1.46-.53,1.45-1.31,0,0,0-6.06,0-6.06.03-.74-.57-1.36-1.31-1.36-4.76-.19-8.91-2.79-11.24-6.62-.55-.69-.16-1.81.67-2.03,6.89-1.62,14.5.85,19.12,6.14Z"/>
      <path class="cls-1" d="M150.19,239.97c-.07-.12-.16-.24-.27-.34-.09-.09-.18-.16-.28-.23-.58-.42-1.15-.86-1.71-1.32-1.17-.95-2.31-1.97-3.4-3.06-3.14-3.13-5.69-6.63-7.66-10.36-2.96-5.59-4.62-11.69-4.95-17.85v-26.88c0-.4-.14-.8-.41-1.13-.03-.04-.07-.09-.11-.13-.35-.35-.81-.52-1.26-.52h-8.5c-.46,0-.91.18-1.26.52-.04.04-.08.08-.11.13-.27.33-.41.74-.41,1.13v22.77h-.04c.01.25.02.5.03.75.17,7.28-1.49,14.6-4.97,21.2-1.97,3.75-4.54,7.27-7.7,10.43-1.07,1.07-2.18,2.07-3.33,3-.56.46-1.13.9-1.7,1.32-.05.03-.1.07-.15.11-.05.04-.09.08-.14.12-.11.11-.19.22-.27.34-.17.28-.26.6-.26.92v7.05c0,.45.17.91.52,1.26.26.25.56.41.89.48.03,0,.05.01.08.01h.01s.07.01.11.02c5.52,1.02,11.16,1.68,16.91,1.95,2,.1,4.01.14,6.03.14s4.03-.05,6.03-.14c5.75-.27,11.39-.93,16.91-1.95,0,0,.01,0,.02,0,.08-.01.17-.03.25-.05.02,0,.05,0,.07-.01.27-.08.53-.23.75-.45.35-.35.52-.8.52-1.27v-7.05c0-.32-.08-.64-.26-.92Z"/>
    </g>
  </g>
</svg>